<svg width="169" height="158" xmlns="http://www.w3.org/2000/svg" xmlns:xlink="http://www.w3.org/1999/xlink" overflow="hidden"><defs><clipPath id="clip0"><rect x="324" y="512" width="169" height="158"/></clipPath><clipPath id="clip1"><rect x="324" y="513" width="169" height="157"/></clipPath><clipPath id="clip2"><rect x="324" y="513" width="169" height="157"/></clipPath><clipPath id="clip3"><rect x="324" y="513" width="169" height="170"/></clipPath></defs><g clip-path="url(#clip0)" transform="translate(-324 -512)"><g clip-path="url(#clip1)"><g clip-path="url(#clip2)"><g clip-path="url(#clip3)"><path d="M144.354 147.171 109.146 113.723 144.354 80.275 144.354 147.171ZM30.2792 151.396 65.1354 118.476 67.6 116.188C77.1062 107.209 92.0698 107.209 101.576 116.188L104.041 118.476 138.721 151.396 30.2792 151.396ZM24.6458 80.099 59.8542 113.547 24.6458 146.995 24.6458 80.099ZM49.2917 35.2083 119.708 35.2083 119.708 93.8302 103.865 108.97C92.4219 100.168 76.5781 100.168 65.1354 108.97L49.2917 93.8302 49.2917 35.2083ZM130.271 39.9615 130.271 24.6458 105.625 24.6458 84.5 7.04167 63.375 24.6458 38.7292 24.6458 38.7292 40.1375 14.0833 63.551 14.0833 161.958 154.917 161.958 154.917 63.551 130.271 39.9615Z" fill="#000000" fill-rule="nonzero" fill-opacity="1" transform="matrix(1 0 0 1.00219 324 513)"/><path d="M84.5 74.4656C81.3313 74.4656 78.8667 71.825 78.8667 68.8323 78.8667 65.6635 81.5073 63.199 84.5 63.199 87.6687 63.199 90.1333 65.6635 90.1333 68.8323 90.1333 72.001 87.6687 74.4656 84.5 74.4656ZM84.5 91.5417C88.549 91.5417 92.4219 90.4854 95.9427 88.725 97.351 87.8448 97.8792 86.0844 97.175 84.676 96.2948 83.2677 94.5344 82.7396 93.126 83.4437 90.4854 84.8521 87.4927 85.5562 84.5 85.5562 75.1698 85.5562 67.424 77.8104 67.6 68.4802 67.6 59.15 75.3458 51.4042 84.676 51.4042 94.0062 51.4042 101.752 58.974 101.752 68.4802L101.752 74.1135C98.5833 74.1135 96.1187 71.649 96.1187 68.4802 96.1187 62.8469 92.2458 58.0938 86.7885 57.0375 81.3313 55.9812 75.874 58.974 73.9375 64.0792 72.001 69.1844 73.9375 75.1698 78.6906 77.9865 83.4437 80.8031 89.6052 79.9229 93.3021 75.6979 95.4146 78.1625 98.5833 79.5708 101.928 79.5708 105.097 79.5708 107.561 77.1062 107.561 73.9375L107.561 68.3042C107.561 55.6292 97.351 45.4187 84.676 45.4187 72.001 45.4187 61.7906 55.6292 61.7906 68.3042 61.6146 81.1552 71.825 91.3656 84.5 91.5417Z" fill="#000000" fill-rule="nonzero" fill-opacity="1" transform="matrix(1 0 0 1.00219 324 513)"/></g></g></g></g></svg>