<svg width="134" height="165" xmlns="http://www.w3.org/2000/svg" xmlns:xlink="http://www.w3.org/1999/xlink" overflow="hidden"><defs><clipPath id="clip0"><rect x="0" y="0" width="134" height="165"/></clipPath></defs><g clip-path="url(#clip0)"><path d="M82.5 75.625C73.9062 75.625 67.0312 68.75 67.0312 60.1562 67.0312 51.5625 73.9062 44.6875 82.5 44.6875 91.0938 44.6875 97.9688 51.5625 97.9688 60.1562 97.9688 68.75 91.0938 75.625 82.5 75.625ZM82.5 24.0625C70.6406 24.0625 59.4687 29.9062 52.7656 39.875 46.0625 49.6719 44.6875 62.2188 48.9844 73.3906L65.3125 109.484 79.4062 139.047C79.9219 140.25 81.125 140.938 82.5 140.938 83.875 140.938 85.0781 140.25 85.5938 139.047L99.6875 109.484 116.016 73.3906C120.312 62.2188 118.937 49.6719 112.234 39.875 105.531 29.9062 94.3594 24.0625 82.5 24.0625Z" fill="#000000" fill-rule="nonzero" fill-opacity="1" transform="scale(1.00186 1)"/></g></svg>