<svg width="171" height="158" xmlns="http://www.w3.org/2000/svg" xmlns:xlink="http://www.w3.org/1999/xlink" overflow="hidden"><defs><clipPath id="clip0"><rect x="129" y="512" width="171" height="158"/></clipPath><clipPath id="clip1"><rect x="130" y="512" width="170" height="158"/></clipPath><clipPath id="clip2"><rect x="130" y="512" width="170" height="158"/></clipPath><clipPath id="clip3"><rect x="130" y="512" width="170" height="171"/></clipPath></defs><g clip-path="url(#clip0)" transform="translate(-129 -512)"><g clip-path="url(#clip1)"><g clip-path="url(#clip2)"><g clip-path="url(#clip3)"><path d="M65.5208 70.975C66.4743 69.9858 67.0075 68.6657 67.0083 67.2917 67.0142 65.8957 66.459 64.5557 65.4677 63.5729L48.6802 46.7677C47.6893 45.7755 46.3461 45.2152 44.9437 45.2094 43.5476 45.22 42.2117 45.7798 41.225 46.7677L39.3656 48.6448 63.5906 72.8167Z" fill="#000000" fill-rule="nonzero" fill-opacity="1" transform="matrix(1 0 0 1.0024 130 512)"/><path d="M89.8698 113.971C88.8546 115.003 87.1953 115.016 86.1634 114.001 86.1533 113.991 86.1432 113.981 86.1333 113.971L56.0292 83.8667C54.9934 82.8297 54.9934 81.1495 56.0292 80.1125L59.7833 76.4646 35.6469 52.3458C34.0885 53.9042 32.5656 55.4271 31.574 56.3656 29.1453 58.6353 27.6916 61.7585 27.5188 65.0781 27.2997 70.4928 28.2668 75.8899 30.3521 80.8917 32.3503 85.3736 34.8008 89.6398 37.6656 93.624 47.6289 108.572 60.2301 121.581 74.8531 132.016 77.2946 133.822 79.863 135.449 82.5385 136.885 88.5852 140.063 95.2099 141.991 102.018 142.552 106.674 142.891 111.233 141.1 114.414 137.682L117.743 134.353 93.5177 110.217Z" fill="#000000" fill-rule="nonzero" fill-opacity="1" transform="matrix(1 0 0 1.0024 130 512)"/><path d="M123.303 121.32 106.516 104.479C104.446 102.431 101.113 102.431 99.0427 104.479L97.2719 106.392 121.426 130.652 123.303 128.881C125.351 126.811 125.351 123.478 123.303 121.408Z" fill="#000000" fill-rule="nonzero" fill-opacity="1" transform="matrix(1 0 0 1.0024 130 512)"/><path d="M110.04 88.5417 102.956 88.5417C102.188 78.3828 94.9199 69.8959 85 67.575L85 60.35C98.8591 62.8304 109.212 74.4866 110.04 88.5417Z" fill="#000000" fill-rule="nonzero" fill-opacity="1" transform="matrix(1 0 0 1.0024 130 512)"/><path d="M126.969 85C126.969 86.1865 126.969 87.3729 126.809 88.5417L119.726 88.5417C119.848 87.3651 119.907 86.1829 119.903 85 119.874 65.7385 104.262 50.1341 85 50.1146L85 43.0312C108.171 43.0507 126.949 61.8294 126.969 85Z" fill="#000000" fill-rule="nonzero" fill-opacity="1" transform="matrix(1 0 0 1.0024 130 512)"/><path d="M145.208 85C145.208 86.1865 145.208 87.3729 145.084 88.5417L138.001 88.5417C138.001 87.3729 138.143 86.1865 138.143 85 138.143 56.6378 115.151 33.6458 86.7885 33.6458 86.7827 33.6458 86.7767 33.6458 86.7708 33.6458 86.1688 33.6458 85.5844 33.6458 85 33.6458L85 26.5625 86.7708 26.5625C119.045 26.5625 145.208 52.7259 145.208 85Z" fill="#000000" fill-rule="nonzero" fill-opacity="1" transform="matrix(1 0 0 1.0024 130 512)"/></g></g></g></g></svg>